<svg width="51" height="51" viewBox="0 0 51 51" fill="none" xmlns="http://www.w3.org/2000/svg">
<g clip-path="url(#clip0_1_3896)">
<path d="M34.7188 5.91211C28.7383 5.91211 23.875 10.7754 23.875 16.7559C23.875 17.1152 23.9648 17.4668 24 17.8184C16.6055 17.1113 10.0664 13.5488 5.625 8.09961C5.41797 7.83789 5.09766 7.69727 4.76172 7.7207C4.42969 7.74414 4.13282 7.93555 3.96875 8.22461C3.03516 9.83008 2.5 11.6777 2.5 13.6621C2.5 16.0645 3.35938 18.2637 4.6875 20.0684C4.42969 19.9551 4.14844 19.8926 3.90625 19.7559C3.59766 19.5918 3.22657 19.5996 2.92578 19.7793C2.625 19.959 2.44141 20.2832 2.4375 20.6309V20.7559C2.4375 24.4395 4.34375 27.6387 7.15625 29.5996C7.125 29.5957 7.09375 29.6074 7.0625 29.5996C6.71875 29.541 6.3711 29.6621 6.14063 29.9238C5.91016 30.1855 5.83594 30.5488 5.9375 30.8809C7.05469 34.3535 9.90625 37.0059 13.4375 37.9746C10.625 39.6465 7.36328 40.6309 3.84375 40.6309C3.08203 40.6309 2.35157 40.5918 1.625 40.5059C1.15625 40.4434 0.707033 40.7168 0.550784 41.1621C0.390627 41.6074 0.566409 42.1035 0.968752 42.3496C5.48047 45.2441 10.8359 46.9434 16.5938 46.9434C25.9258 46.9434 33.2461 43.0449 38.1563 37.4746C43.0664 31.9043 45.625 24.6699 45.625 17.9121C45.625 17.627 45.6016 17.3496 45.5938 17.0684C47.4258 15.666 49.0625 14.0215 50.3438 12.0996C50.5977 11.7285 50.5703 11.2324 50.2773 10.8887C49.9883 10.5449 49.5 10.4395 49.0938 10.6309C48.5781 10.8613 47.9766 10.8848 47.4375 11.0684C48.1484 10.1191 48.7578 9.0957 49.125 7.94336C49.25 7.54883 49.1133 7.11523 48.7891 6.85742C48.4648 6.60352 48.0117 6.57227 47.6563 6.78711C45.9492 7.79883 44.0586 8.50977 42.0625 8.94336C40.125 7.13086 37.5742 5.91211 34.7188 5.91211ZM34.7188 7.91211C37.2695 7.91211 39.5742 9.00195 41.1875 10.7246C41.4297 10.9746 41.7852 11.0801 42.125 11.0059C43.4297 10.748 44.668 10.3691 45.875 9.88086C45.1797 10.8184 44.3203 11.6191 43.3125 12.2246C42.8555 12.4473 42.6406 12.9746 42.8086 13.4551C42.9727 13.9316 43.4727 14.209 43.9688 14.0996C44.9688 13.9785 45.8594 13.5723 46.8125 13.3184C45.957 14.2441 45.0195 15.0801 44 15.8184C43.7227 16.0215 43.5703 16.3496 43.5938 16.6934C43.6094 17.0996 43.625 17.502 43.625 17.9121C43.625 24.1621 41.2266 30.9473 36.6563 36.1309C32.0859 41.3145 25.375 44.9434 16.5938 44.9434C12.6055 44.9434 8.83985 44.0605 5.4375 42.5059C9.65625 42.1816 13.5469 40.6895 16.6875 38.2246C17.0156 37.9629 17.1445 37.5254 17.0117 37.127C16.8789 36.7285 16.5117 36.4551 16.0938 36.4434C12.7969 36.3848 10.0352 34.4668 8.5625 31.7559C8.61719 31.7559 8.66407 31.7559 8.71875 31.7559C9.70703 31.7559 10.6836 31.6309 11.5938 31.3809C12.0313 31.252 12.332 30.8457 12.3164 30.3887C12.3008 29.9316 11.9766 29.541 11.5313 29.4434C7.97266 28.7246 5.30469 25.8262 4.6875 22.2246C5.69532 22.5723 6.72657 22.8457 7.84375 22.8809C8.30078 22.9082 8.71485 22.623 8.85547 22.1895C8.9961 21.7559 8.82422 21.2793 8.4375 21.0371C6.0625 19.4473 4.5 16.7402 4.5 13.6621C4.5 12.5215 4.79688 11.4746 5.1875 10.4746C10.1875 15.9629 17.1875 19.6074 25.0938 20.0059C25.4063 20.0215 25.7109 19.8926 25.9141 19.6543C26.1172 19.4121 26.1953 19.0918 26.125 18.7871C25.9727 18.1387 25.875 17.4512 25.875 16.7559C25.875 11.8574 29.8203 7.91211 34.7188 7.91211Z" fill="#DD8560"/>
</g>
<defs>
<clipPath id="clip0_1_3896">
<rect width="50" height="50" fill="white" transform="translate(0.5 0.443359)"/>
</clipPath>
</defs>
</svg>
